<svg xmlns="http://www.w3.org/2000/svg" viewBox="0 0 1200 675" role="img" aria-labelledby="t d"><title id="t">Developmental EEG</title><desc id="d">Premium chalkboard-style EEG illustration for Developmental EEG</desc><defs><radialGradient id="g"><stop stop-color="#1ce6c8" stop-opacity=".28"/><stop offset="1" stop-color="#070b10" stop-opacity="0"/></radialGradient><filter id="gl"><feGaussianBlur stdDeviation="5" result="b"/><feMerge><feMergeNode in="b"/><feMergeNode in="SourceGraphic"/></feMerge></filter></defs><rect width="1200" height="675" rx="42" fill="#070b10"/><circle cx="600" cy="335" r="290" fill="url(#g)"/><g opacity=".16" stroke="#8ba7b5"><path d="M40 170H1160M40 250H1160M40 330H1160M40 410H1160M40 490H1160"/><path d="M160 110V550M320 110V550M480 110V550M640 110V550M800 110V550M960 110V550"/></g><polyline points="40,397.3 48,395.8 56,381.0 64,356.3 72,329.6 80,308.9 88,299.1 96,299.6 104,304.6 112,306.8 120,301.1 128,287.5 136,270.9 144,259.2 152,259.2 160,272.8 168,296.4 176,322.1 184,341.9 192,351.3 200,351.1 208,347.1 216,346.6 224,354.4 232,370.4 240,389.2 248,402.7 256,404.3 264,392.1 272,370.0 280,345.6 288,327.0 296,318.4 304,318.7 312,322.0 320,321.1 328,311.3 336,293.2 344,272.4 352,257.0 360,253.7 368,264.3 376,284.8 384,307.5 392,324.6 400,332.0 408,331.3 416,328.3 424,330.4 432,341.8 440,361.8 448,384.6 456,401.7 464,406.7 472,397.8 480,379.1 488,358.3 496,343.1 504,337.1 512,338.6 520,341.5 528,338.8 536,326.0 544,304.3 552,279.9 560,261.1 568,254.5 576,261.7 584,278.4 592,297.1 600,310.3 608,314.5 616,311.9 624,308.6 632,311.8 640,325.6 648,348.6 656,374.4 664,394.6 672,402.7 680,397.2 688,382.5 696,366.1 704,355.2 712,352.9 720,357.0 728,361.0 736,357.7 744,343.3 752,319.3 760,292.4 768,271.0 776,261.6 784,265.4 792,278.2 800,292.3 808,300.7 816,300.7 824,294.9 832,290.0 840,293.0 848,307.7 856,332.3 864,359.9 872,382.2 880,392.7 888,390.4 896,379.6 904,367.8 912,361.9 920,364.3 928,372.1 936,378.3 944,375.9 952,361.2 960,336.4 968,308.4 976,285.5 984,274.2 992,275.2 1000,284.2 1008,293.6 1016,297.0 1024,292.1 1032,282.2 1040,274.5 1048,276.0 1056,290.2 1064,314.9 1072,343.0 1080,366.0 1088,377.9 1096,377.9 1104,370.6 1112,363.4 1120,362.6 1128,370.0 1136,382.1 1144,391.5 1152,391.1 1160,377.7" fill="none" stroke="#45f1d0" stroke-width="6" stroke-linecap="round" stroke-linejoin="round" filter="url(#gl)"/><g fill="#f6fbff"><text x="60" y="80" font-family="Arial,sans-serif" font-size="28" font-weight="700">CLINICAL EEG • 21.2</text><text x="60" y="610" font-family="Arial,sans-serif" font-size="44" font-weight="700">Developmental EEG</text></g><circle cx="1080" cy="78" r="18" fill="#ffcf58"/><circle cx="1125" cy="78" r="18" fill="#ff5f87"/></svg>