<svg xmlns="http://www.w3.org/2000/svg" viewBox="0 0 800 700" role="img" aria-labelledby="t d"><title id="t">Embryonic neural development</title><desc id="d">Stylised clinical neuroscience illustration of embryonic neural development.</desc><rect width="800" height="700" rx="48" fill="#0b0d12"/><path d="M55 80H745" stroke="#242936" stroke-width="2"/><text x="60" y="58" fill="#ff5ca8" font-family="Arial,sans-serif" font-size="25" font-weight="700">CLINICAL NEUROSCIENCE ATLAS</text><path d="M128 250 C170 120 320 70 470 120 C610 165 710 285 680 430 C650 565 525 650 365 620 C210 590 90 460 128 250Z" fill="#281a42" stroke="#ff5ca8" stroke-width="8"/><path d="M190 255 C280 180 420 175 555 240" fill="none" stroke="#5de4ff" stroke-width="22" stroke-linecap="round"/><path d="M205 330 C310 265 465 280 590 360" fill="none" stroke="#ffe05d" stroke-width="18" stroke-linecap="round"/><circle cx="270" cy="225" r="20" fill="#5de4ff"/><circle cx="380" cy="208" r="18" fill="#ff5ca8"/><circle cx="500" cy="238" r="20" fill="#ffe05d"/><g fill="#9bff88"><circle cx="260" cy="390" r="14"/><circle cx="335" cy="410" r="14"/><circle cx="410" cy="430" r="14"/><circle cx="485" cy="455" r="14"/></g><path d="M235 500 C330 540 465 555 570 500" fill="none" stroke="#b98cff" stroke-width="16" stroke-linecap="round"/><text x="400" y="665" fill="#f4f6fb" text-anchor="middle" font-family="Arial,sans-serif" font-size="28" font-weight="700">Embryonic neural development</text></svg>