<svg xmlns="http://www.w3.org/2000/svg" viewBox="0 0 800 520"><title>Astrocytes</title><desc>Neuro Atlas educational illustration for Astrocytes.</desc><rect width="800" height="520" rx="34" fill="#090d0e"/><path d="M389 252c-17-66-56-140-89-166m89 166c43-58 69-127 71-184m-71 184c82-22 164-31 240-7m-240 7c60 39 123 88 156 153m-156-153c-19 80-59 150-111 196m111-196c-72 28-151 44-221 34m221-34c-45-52-100-99-154-118" fill="none" stroke="#55e2ff" stroke-width="18" stroke-linecap="round"/><circle cx="389" cy="252" r="69" fill="#176b7e" stroke="#76ecff" stroke-width="8"/><circle cx="389" cy="252" r="24" fill="#ffd166"/><path d="M630 245c-5 60 0 112 34 163" stroke="#ff4db8" stroke-width="24" stroke-linecap="round"/><path d="M629 245c24-8 45-9 67-3" stroke="#ff4db8" stroke-width="24" stroke-linecap="round"/></svg>