<svg xmlns="http://www.w3.org/2000/svg" viewBox="0 0 1200 675" role="img" aria-labelledby="t d"><title id="t">Filters and Time Constants</title><desc id="d">Premium chalkboard-style EEG illustration for Filters and Time Constants</desc><defs><radialGradient id="g"><stop stop-color="#1ce6c8" stop-opacity=".28"/><stop offset="1" stop-color="#070b10" stop-opacity="0"/></radialGradient><filter id="gl"><feGaussianBlur stdDeviation="5" result="b"/><feMerge><feMergeNode in="b"/><feMergeNode in="SourceGraphic"/></feMerge></filter></defs><rect width="1200" height="675" rx="42" fill="#070b10"/><circle cx="600" cy="335" r="290" fill="url(#g)"/><g opacity=".16" stroke="#8ba7b5"><path d="M40 170H1160M40 250H1160M40 330H1160M40 410H1160M40 490H1160"/><path d="M160 110V550M320 110V550M480 110V550M640 110V550M800 110V550M960 110V550"/></g><polyline points="40,337.7 48,312.1 56,285.9 64,267.3 72,261.5 80,268.4 88,282.2 96,295.3 104,301.5 112,299.4 120,293.0 128,289.6 136,295.6 144,313.4 152,339.6 160,366.7 168,386.2 176,393.1 184,387.9 192,376.1 200,365.5 208,361.8 216,366.2 224,374.4 232,378.9 240,373.3 248,355.5 256,329.0 264,301.5 272,281.4 280,273.5 288,277.3 296,287.1 304,295.3 312,296.4 320,289.6 328,279.5 336,273.6 344,278.4 352,295.9 360,322.3 368,349.9 376,370.3 384,378.8 392,376.2 400,368.2 408,362.3 416,363.8 424,373.2 432,385.3 440,392.7 448,388.9 456,372.1 464,346.2 472,319.0 480,298.6 488,289.8 496,291.5 504,297.9 512,301.6 520,297.5 528,285.7 536,271.4 544,262.2 552,264.8 560,280.6 568,305.8 576,332.3 584,352.2 592,361.0 600,359.9 608,354.9 616,353.2 624,359.6 632,373.9 640,390.4 648,401.3 656,400.3 664,385.6 672,361.6 680,336.1 688,317.1 696,308.7 704,309.4 712,313.4 720,313.3 728,304.7 736,288.1 744,269.4 752,256.6 760,256.1 768,269.3 776,291.9 784,316.0 792,333.9 800,341.6 808,340.8 816,337.6 824,339.1 832,349.7 840,368.4 848,389.2 856,403.8 864,406.0 872,394.4 880,373.4 888,350.9 896,334.6 904,328.0 912,329.2 920,332.0 928,329.3 936,317.0 944,296.4 952,273.8 960,257.4 968,253.6 976,263.4 984,282.6 992,303.1 1000,317.7 1008,322.9 1016,320.9 1024,318.2 1032,321.7 1040,335.4 1048,357.6 1056,381.9 1064,399.9 1072,405.3 1080,397.2 1088,380.0 1096,361.6 1104,349.1 1112,345.6 1120,348.7 1128,351.7 1136,347.7 1144,333.0 1152,309.4 1160,283.8" fill="none" stroke="#45f1d0" stroke-width="6" stroke-linecap="round" stroke-linejoin="round" filter="url(#gl)"/><g fill="#f6fbff"><text x="60" y="80" font-family="Arial,sans-serif" font-size="28" font-weight="700">CLINICAL EEG • 19.8</text><text x="60" y="610" font-family="Arial,sans-serif" font-size="44" font-weight="700">Filters and Time Constants</text></g><circle cx="1080" cy="78" r="18" fill="#ffcf58"/><circle cx="1125" cy="78" r="18" fill="#ff5f87"/></svg>