<svg xmlns="http://www.w3.org/2000/svg" viewBox="0 0 800 700" role="img" aria-labelledby="t d"><title id="t">Neural tube formation</title><desc id="d">Stylised clinical neuroscience illustration of neural tube formation.</desc><rect width="800" height="700" rx="48" fill="#0b0d12"/><path d="M55 80H745" stroke="#242936" stroke-width="2"/><text x="60" y="58" fill="#5de4ff" font-family="Arial,sans-serif" font-size="25" font-weight="700">CLINICAL NEUROSCIENCE ATLAS</text><path d="M120 440 C210 220 590 220 680 440" fill="#1c3040" stroke="#5de4ff" stroke-width="8"/><path d="M175 430 C230 285 325 240 400 330 C475 240 570 285 625 430" fill="none" stroke="#ff5ca8" stroke-width="28" stroke-linecap="round"/><path d="M315 360 C340 420 460 420 485 360" fill="none" stroke="#ffe05d" stroke-width="18" stroke-linecap="round"/><ellipse cx="400" cy="430" rx="115" ry="72" fill="#281a42" stroke="#b98cff" stroke-width="8"/><ellipse cx="400" cy="430" rx="48" ry="30" fill="#0b0d12" stroke="#5de4ff" stroke-width="6"/><g fill="#9bff88"><circle cx="240" cy="350" r="13"/><circle cx="560" cy="350" r="13"/><circle cx="205" cy="395" r="11"/><circle cx="595" cy="395" r="11"/></g><text x="400" y="665" fill="#f4f6fb" text-anchor="middle" font-family="Arial,sans-serif" font-size="28" font-weight="700">Neural tube formation</text></svg>