<svg xmlns="http://www.w3.org/2000/svg" viewBox="0 0 900 520" role="img" aria-labelledby="title desc"><title id="title">Semantic Memory Assessment clinical pathway</title><desc id="desc">Four-stage neuropsychological mechanism and interpretation pathway.</desc><defs><radialGradient id="bg"><stop stop-color="#16252b"/><stop offset="1" stop-color="#050708"/></radialGradient><marker id="a" markerWidth="10" markerHeight="10" refX="8" refY="3" orient="auto"><path d="M0 0 L0 6 L9 3 Z" fill="#21e6c1"/></marker><filter id="glow"><feGaussianBlur stdDeviation="5" result="b"/><feMerge><feMergeNode in="b"/><feMergeNode in="SourceGraphic"/></feMerge></filter></defs><rect width="900" height="520" rx="28" fill="url(#bg)"/><path d="M110 115 C225 25 365 55 450 130 C540 30 700 50 795 145 C730 190 660 205 575 190 C500 245 390 240 325 190 C240 210 165 185 110 115Z" fill="#121a1d" stroke="#21e6c1" stroke-width="4" filter="url(#glow)"/><path d="M250 112 C290 85 330 90 360 125 M540 120 C590 85 635 95 675 135 M430 105 V185" fill="none" stroke="#21e6c1" stroke-width="3" opacity=".7"/><path d="M154 260 H251" stroke="#21e6c1" stroke-width="4" marker-end="url(#a)" opacity=".75"/><path d="M154 260 H456" stroke="#21e6c1" stroke-width="4" marker-end="url(#a)" opacity=".75"/><path d="M154 260 H661" stroke="#21e6c1" stroke-width="4" marker-end="url(#a)" opacity=".75"/><g transform="translate(100,260)"><circle r="54" fill="#101820" stroke="#21e6c1" stroke-width="4"/><text text-anchor="middle" y="-5" fill="#f4f6f8" font-size="15" font-weight="700">Concept activation</text><text text-anchor="middle" y="17" fill="#b7c3ca" font-size="12">1</text></g><g transform="translate(305,260)"><circle r="54" fill="#101820" stroke="#21e6c1" stroke-width="4"/><text text-anchor="middle" y="-5" fill="#f4f6f8" font-size="15" font-weight="700">Hub integration</text><text text-anchor="middle" y="17" fill="#b7c3ca" font-size="12">2</text></g><g transform="translate(510,260)"><circle r="54" fill="#101820" stroke="#21e6c1" stroke-width="4"/><text text-anchor="middle" y="-5" fill="#f4f6f8" font-size="15" font-weight="700">Lexical access</text><text text-anchor="middle" y="17" fill="#b7c3ca" font-size="12">3</text></g><g transform="translate(715,260)"><circle r="54" fill="#101820" stroke="#21e6c1" stroke-width="4"/><text text-anchor="middle" y="-5" fill="#f4f6f8" font-size="15" font-weight="700">Context check</text><text text-anchor="middle" y="17" fill="#b7c3ca" font-size="12">4</text></g><text x="450" y="410" text-anchor="middle" fill="#21e6c1" font-size="28" font-weight="800">Semantic Memory Assessment</text><text x="450" y="445" text-anchor="middle" fill="#d7e0e5" font-size="17">Mechanism → observation → interpretation → action</text><text x="450" y="482" text-anchor="middle" fill="#8ea1aa" font-size="13">Clinical Neuroscience Atlas • Neuropsychology</text></svg>