<svg xmlns="http://www.w3.org/2000/svg" viewBox="0 0 1200 750" role="img" aria-labelledby="t d"><title id="t">Synapses</title><desc id="d">Medical atlas illustration representing synapses.</desc><defs><radialGradient id="bg"><stop stop-color="#173033"/><stop offset="1" stop-color="#060a0b"/></radialGradient><filter id="g"><feGaussianBlur stdDeviation="12" result="b"/><feMerge><feMergeNode in="b"/><feMergeNode in="SourceGraphic"/></feMerge></filter><linearGradient id="p"><stop stop-color="#51a8ff"/><stop offset="1" stop-color="#ff4db8"/></linearGradient></defs><rect width="1200" height="750" fill="url(#bg)"/><g opacity=".18" stroke="#d8f8f2"><path d="M0 120H1200M0 240H1200M0 360H1200M0 480H1200M0 600H1200"/><path d="M150 0V750M300 0V750M450 0V750M600 0V750M750 0V750M900 0V750M1050 0V750"/></g><g transform="translate(150 130)" fill="none" stroke="url(#p)" stroke-width="18" stroke-linecap="round" filter="url(#g)"><path d="M80 245 C210 65 325 425 450 245 S690 70 820 245"/><path d="M80 325 C210 145 325 505 450 325 S690 150 820 325"/><circle cx="80" cy="245" r="36" fill="#51a8ff"/><circle cx="450" cy="245" r="36" fill="#ff4db8"/><circle cx="820" cy="245" r="36" fill="#51a8ff"/></g><text x="600" y="650" text-anchor="middle" fill="#eef7f5" font-family="system-ui" font-size="54" font-weight="800">Synapses</text><text x="600" y="698" text-anchor="middle" fill="#9eb0ad" font-family="system-ui" font-size="24">Clinical Neuroscience Atlas</text></svg>