<svg xmlns="http://www.w3.org/2000/svg" viewBox="0 0 760 520" role="img" aria-labelledby="title desc"><title id="title">Visual System</title><desc id="desc">Stylised clinical atlas illustration showing principal components of the Visual System.</desc><defs><radialGradient id="bg"><stop stop-color="#18253a"/><stop offset="1" stop-color="#05070c"/></radialGradient><filter id="glow"><feGaussianBlur stdDeviation="5" result="b"/><feMerge><feMergeNode in="b"/><feMergeNode in="SourceGraphic"/></feMerge></filter></defs><rect width="760" height="520" rx="28" fill="url(#bg)"/><path d="M75 260 C105 90 300 42 485 84 C666 126 714 252 645 380 C585 490 322 482 151 405 C91 378 58 326 75 260Z" fill="none" stroke="#5ce1e6" stroke-width="3" opacity=".7"/><g filter="url(#glow)"><path d="M120 145 C220 60 300 230 480 145 S620 260 660 270" class="path"/><g transform="translate(120 145)"><circle r="38" fill="#ff5ea8" opacity=".2"/><circle r="24" fill="none" stroke="#ff5ea8" stroke-width="3"/><text y="62" text-anchor="middle" class="label">Retina</text></g><g transform="translate(300 145)"><circle r="38" fill="#5ce1e6" opacity=".2"/><circle r="24" fill="none" stroke="#5ce1e6" stroke-width="3"/><text y="62" text-anchor="middle" class="label">Optic chiasm</text></g><g transform="translate(480 145)"><circle r="38" fill="#ffd166" opacity=".2"/><circle r="24" fill="none" stroke="#ffd166" stroke-width="3"/><text y="62" text-anchor="middle" class="label">Lateral geniculate nucleus</text></g><g transform="translate(120 270)"><circle r="38" fill="#8f7cff" opacity=".2"/><circle r="24" fill="none" stroke="#8f7cff" stroke-width="3"/><text y="62" text-anchor="middle" class="label">Primary visual cortex</text></g><g transform="translate(300 270)"><circle r="38" fill="#7ee081" opacity=".2"/><circle r="24" fill="none" stroke="#7ee081" stroke-width="3"/><text y="62" text-anchor="middle" class="label">Dorsal and ventral streams</text></g></g><text x="50" y="55" class="title">VISUAL SYSTEM</text><text x="50" y="87" class="sub">From retinal light detection to perception and action</text><style>.title{font:700 24px system-ui;fill:#f3f8ff;letter-spacing:2px}.sub{font:15px system-ui;fill:#a9bdd4}.label{font:600 13px system-ui;fill:#eaf5ff}.path{fill:none;stroke:#f6c85f;stroke-width:5;stroke-linecap:round;stroke-dasharray:10 10}</style></svg>